<svg width="80" height="81" viewBox="0 0 80 81" fill="none" xmlns="http://www.w3.org/2000/svg">
<path fill-rule="evenodd" clip-rule="evenodd" d="M64.83 28.66L54.6267 37.1667C55.1255 39.3631 55.1255 41.6435 54.6267 43.84L64.83 52.34C66.5877 48.641 67.4996 44.597 67.4996 40.5017C67.4996 36.4063 66.5877 32.3623 64.83 28.6633V28.66ZM51.84 65.3333L43.3333 55.1267C41.1368 55.6255 38.8565 55.6255 36.66 55.1267L28.16 65.33C31.859 67.0877 35.903 67.9996 39.9983 67.9996C44.0937 67.9996 48.1377 67.0877 51.8367 65.33L51.84 65.3333ZM15.1667 52.34L25.3733 43.8333C24.8745 41.6368 24.8745 39.3565 25.3733 37.16L15.17 28.6667C13.4123 32.3657 12.5004 36.4096 12.5004 40.505C12.5004 44.6004 13.4123 48.6443 15.17 52.3433L15.1667 52.34ZM28.16 15.6667L36.6667 25.8733C38.8631 25.3745 41.1435 25.3745 43.34 25.8733L51.84 15.67C48.141 13.9123 44.097 13.0004 40.0017 13.0004C35.9063 13.0004 31.8623 13.9123 28.1633 15.67L28.16 15.6667ZM57.0167 12.8C59.1828 14.1339 61.1854 15.7169 62.9833 17.5167C64.7815 19.3127 66.3633 21.313 67.6967 23.4767C70.8379 28.5974 72.5005 34.4876 72.5005 40.495C72.5005 46.5024 70.8379 52.3926 67.6967 57.5133C66.3627 59.6795 64.7797 61.682 62.98 63.48C61.1839 65.2781 59.1836 66.86 57.02 68.1933C51.8989 71.3352 46.0081 72.9982 40 72.9982C33.9919 72.9982 28.1011 71.3352 22.98 68.1933C20.8161 66.859 18.8159 65.276 17.02 63.4767C15.2207 61.6808 13.6377 59.6805 12.3033 57.5167C9.16145 52.3956 7.49841 46.5047 7.49841 40.4967C7.49841 34.4886 9.16145 28.5978 12.3033 23.4767C13.6376 21.3128 15.2206 19.3125 17.02 17.5167C18.8158 15.7173 20.8161 14.1343 22.98 12.8C28.1007 9.65878 33.9909 7.99611 39.9983 7.99611C46.0057 7.99611 51.8959 9.65878 57.0167 12.8ZM47.07 33.4333C46.0263 32.3859 44.7624 31.5842 43.37 31.0867C41.1903 30.3108 38.8097 30.3108 36.63 31.0867C35.2376 31.5842 33.9736 32.3859 32.93 33.4333C31.8433 34.5167 31.0633 35.7833 30.5833 37.1333C29.8075 39.313 29.8075 41.6936 30.5833 43.8733C31.0633 45.2233 31.8433 46.49 32.93 47.5733C34.0133 48.66 35.28 49.44 36.63 49.92C38.8033 50.6967 41.1967 50.6967 43.37 49.92C44.7624 49.4224 46.0263 48.6208 47.07 47.5733C48.1567 46.49 48.9367 45.2233 49.4167 43.8733C50.1922 41.6936 50.1922 39.3131 49.4167 37.1333C48.9191 35.741 48.1174 34.477 47.07 33.4333Z" fill="#F97316"/>
</svg>
