<svg width="292" height="81" viewBox="0 0 292 81" fill="none" xmlns="http://www.w3.org/2000/svg">
<path fill-rule="evenodd" clip-rule="evenodd" d="M64.83 28.66L54.6267 37.1667C55.1255 39.3631 55.1255 41.6435 54.6267 43.84L64.83 52.34C66.5877 48.641 67.4996 44.597 67.4996 40.5017C67.4996 36.4063 66.5877 32.3623 64.83 28.6633V28.66ZM51.84 65.3333L43.3333 55.1267C41.1368 55.6255 38.8565 55.6255 36.66 55.1267L28.16 65.33C31.859 67.0877 35.903 67.9996 39.9983 67.9996C44.0937 67.9996 48.1377 67.0877 51.8367 65.33L51.84 65.3333ZM15.1667 52.34L25.3733 43.8333C24.8745 41.6368 24.8745 39.3565 25.3733 37.16L15.17 28.6667C13.4123 32.3657 12.5004 36.4096 12.5004 40.505C12.5004 44.6004 13.4123 48.6443 15.17 52.3433L15.1667 52.34ZM28.16 15.6667L36.6667 25.8733C38.8631 25.3745 41.1435 25.3745 43.34 25.8733L51.84 15.67C48.141 13.9123 44.097 13.0004 40.0017 13.0004C35.9063 13.0004 31.8623 13.9123 28.1633 15.67L28.16 15.6667ZM57.0167 12.8C59.1828 14.1339 61.1854 15.7169 62.9833 17.5167C64.7815 19.3127 66.3633 21.313 67.6967 23.4767C70.8379 28.5974 72.5005 34.4876 72.5005 40.495C72.5005 46.5024 70.8379 52.3926 67.6967 57.5133C66.3627 59.6795 64.7797 61.682 62.98 63.48C61.1839 65.2781 59.1836 66.86 57.02 68.1933C51.8989 71.3352 46.0081 72.9982 40 72.9982C33.9919 72.9982 28.1011 71.3352 22.98 68.1933C20.8161 66.859 18.8159 65.276 17.02 63.4767C15.2207 61.6808 13.6377 59.6805 12.3033 57.5167C9.16145 52.3956 7.49841 46.5047 7.49841 40.4967C7.49841 34.4886 9.16145 28.5978 12.3033 23.4767C13.6376 21.3128 15.2206 19.3125 17.02 17.5167C18.8158 15.7173 20.8161 14.1343 22.98 12.8C28.1007 9.65878 33.9909 7.99611 39.9983 7.99611C46.0057 7.99611 51.8959 9.65878 57.0167 12.8ZM47.07 33.4333C46.0263 32.3859 44.7624 31.5842 43.37 31.0867C41.1903 30.3108 38.8097 30.3108 36.63 31.0867C35.2376 31.5842 33.9736 32.3859 32.93 33.4333C31.8433 34.5167 31.0633 35.7833 30.5833 37.1333C29.8075 39.313 29.8075 41.6936 30.5833 43.8733C31.0633 45.2233 31.8433 46.49 32.93 47.5733C34.0133 48.66 35.28 49.44 36.63 49.92C38.8033 50.6967 41.1967 50.6967 43.37 49.92C44.7624 49.4224 46.0263 48.6208 47.07 47.5733C48.1567 46.49 48.9367 45.2233 49.4167 43.8733C50.1922 41.6936 50.1922 39.3131 49.4167 37.1333C48.9191 35.741 48.1174 34.477 47.07 33.4333Z" fill="#F97316"/>
<path d="M104.848 34.696C103.411 34.696 102.123 34.4627 100.984 33.996C99.8453 33.5293 98.9307 32.8387 98.24 31.924C97.568 31.0093 97.2133 29.908 97.176 28.62H102.272C102.347 29.348 102.599 29.908 103.028 30.3C103.457 30.6733 104.017 30.86 104.708 30.86C105.417 30.86 105.977 30.7013 106.388 30.384C106.799 30.048 107.004 29.5907 107.004 29.012C107.004 28.5267 106.836 28.1253 106.5 27.808C106.183 27.4907 105.781 27.2293 105.296 27.024C104.829 26.8187 104.157 26.5853 103.28 26.324C102.011 25.932 100.975 25.54 100.172 25.148C99.3693 24.756 98.6787 24.1773 98.1 23.412C97.5213 22.6467 97.232 21.648 97.232 20.416C97.232 18.5867 97.8947 17.1587 99.22 16.132C100.545 15.0867 102.272 14.564 104.4 14.564C106.565 14.564 108.311 15.0867 109.636 16.132C110.961 17.1587 111.671 18.596 111.764 20.444H106.584C106.547 19.8093 106.313 19.3147 105.884 18.96C105.455 18.5867 104.904 18.4 104.232 18.4C103.653 18.4 103.187 18.5587 102.832 18.876C102.477 19.1747 102.3 19.6133 102.3 20.192C102.3 20.8267 102.599 21.3213 103.196 21.676C103.793 22.0307 104.727 22.4133 105.996 22.824C107.265 23.2533 108.292 23.664 109.076 24.056C109.879 24.448 110.569 25.0173 111.148 25.764C111.727 26.5107 112.016 27.472 112.016 28.648C112.016 29.768 111.727 30.7853 111.148 31.7C110.588 32.6147 109.767 33.3427 108.684 33.884C107.601 34.4253 106.323 34.696 104.848 34.696ZM114.011 26.66C114.011 25.0547 114.309 23.6453 114.907 22.432C115.523 21.2187 116.353 20.2853 117.399 19.632C118.444 18.9787 119.611 18.652 120.899 18.652C122 18.652 122.961 18.876 123.783 19.324C124.623 19.772 125.267 20.36 125.715 21.088V18.876H130.503V34.5H125.715V32.288C125.248 33.016 124.595 33.604 123.755 34.052C122.933 34.5 121.972 34.724 120.871 34.724C119.601 34.724 118.444 34.3973 117.399 33.744C116.353 33.072 115.523 32.1293 114.907 30.916C114.309 29.684 114.011 28.2653 114.011 26.66ZM125.715 26.688C125.715 25.4933 125.379 24.5507 124.707 23.86C124.053 23.1693 123.251 22.824 122.299 22.824C121.347 22.824 120.535 23.1693 119.863 23.86C119.209 24.532 118.883 25.4653 118.883 26.66C118.883 27.8547 119.209 28.8067 119.863 29.516C120.535 30.2067 121.347 30.552 122.299 30.552C123.251 30.552 124.053 30.2067 124.707 29.516C125.379 28.8253 125.715 27.8827 125.715 26.688ZM138.754 13.78V34.5H133.966V13.78H138.754ZM156.952 26.436C156.952 26.884 156.924 27.3507 156.868 27.836H146.032C146.107 28.8067 146.415 29.5533 146.956 30.076C147.516 30.58 148.198 30.832 149 30.832C150.195 30.832 151.026 30.328 151.492 29.32H156.588C156.327 30.3467 155.851 31.2707 155.16 32.092C154.488 32.9133 153.639 33.5573 152.612 34.024C151.586 34.4907 150.438 34.724 149.168 34.724C147.638 34.724 146.275 34.3973 145.08 33.744C143.886 33.0907 142.952 32.1573 142.28 30.944C141.608 29.7307 141.272 28.312 141.272 26.688C141.272 25.064 141.599 23.6453 142.252 22.432C142.924 21.2187 143.858 20.2853 145.052 19.632C146.247 18.9787 147.619 18.652 149.168 18.652C150.68 18.652 152.024 18.9693 153.2 19.604C154.376 20.2387 155.291 21.144 155.944 22.32C156.616 23.496 156.952 24.868 156.952 26.436ZM152.052 25.176C152.052 24.3547 151.772 23.7013 151.212 23.216C150.652 22.7307 149.952 22.488 149.112 22.488C148.31 22.488 147.628 22.7213 147.068 23.188C146.527 23.6547 146.191 24.3173 146.06 25.176H152.052ZM165.834 34.724C164.472 34.724 163.258 34.4907 162.194 34.024C161.13 33.5573 160.29 32.9227 159.674 32.12C159.058 31.2987 158.713 30.384 158.638 29.376H163.37C163.426 29.9173 163.678 30.356 164.126 30.692C164.574 31.028 165.125 31.196 165.778 31.196C166.376 31.196 166.833 31.084 167.15 30.86C167.486 30.6173 167.654 30.3093 167.654 29.936C167.654 29.488 167.421 29.1613 166.954 28.956C166.488 28.732 165.732 28.4893 164.686 28.228C163.566 27.9667 162.633 27.696 161.886 27.416C161.14 27.1173 160.496 26.66 159.954 26.044C159.413 25.4093 159.142 24.56 159.142 23.496C159.142 22.6 159.385 21.788 159.87 21.06C160.374 20.3133 161.102 19.7253 162.054 19.296C163.025 18.8667 164.173 18.652 165.498 18.652C167.458 18.652 168.998 19.1373 170.118 20.108C171.257 21.0787 171.91 22.3667 172.078 23.972H167.654C167.58 23.4307 167.337 23.0013 166.926 22.684C166.534 22.3667 166.012 22.208 165.358 22.208C164.798 22.208 164.369 22.32 164.07 22.544C163.772 22.7493 163.622 23.0387 163.622 23.412C163.622 23.86 163.856 24.196 164.322 24.42C164.808 24.644 165.554 24.868 166.562 25.092C167.72 25.3907 168.662 25.6893 169.39 25.988C170.118 26.268 170.753 26.7347 171.294 27.388C171.854 28.0227 172.144 28.8813 172.162 29.964C172.162 30.8787 171.901 31.7 171.378 32.428C170.874 33.1373 170.137 33.6973 169.166 34.108C168.214 34.5187 167.104 34.724 165.834 34.724ZM119.996 46.844V66.5H115.208V54.712L110.812 66.5H106.948L102.524 54.684V66.5H97.736V46.844H103.392L108.908 60.452L114.368 46.844H119.996ZM122.487 58.66C122.487 57.0547 122.786 55.6453 123.383 54.432C123.999 53.2187 124.83 52.2853 125.875 51.632C126.92 50.9787 128.087 50.652 129.375 50.652C130.476 50.652 131.438 50.876 132.259 51.324C133.099 51.772 133.743 52.36 134.191 53.088V50.876H138.979V66.5H134.191V64.288C133.724 65.016 133.071 65.604 132.231 66.052C131.41 66.5 130.448 66.724 129.347 66.724C128.078 66.724 126.92 66.3973 125.875 65.744C124.83 65.072 123.999 64.1293 123.383 62.916C122.786 61.684 122.487 60.2653 122.487 58.66ZM134.191 58.688C134.191 57.4933 133.855 56.5507 133.183 55.86C132.53 55.1693 131.727 54.824 130.775 54.824C129.823 54.824 129.011 55.1693 128.339 55.86C127.686 56.532 127.359 57.4653 127.359 58.66C127.359 59.8547 127.686 60.8067 128.339 61.516C129.011 62.2067 129.823 62.552 130.775 62.552C131.727 62.552 132.53 62.2067 133.183 61.516C133.855 60.8253 134.191 59.8827 134.191 58.688ZM151.963 50.708C153.792 50.708 155.248 51.3053 156.331 52.5C157.432 53.676 157.983 55.3 157.983 57.372V66.5H153.223V58.016C153.223 56.9707 152.952 56.1587 152.411 55.58C151.87 55.0013 151.142 54.712 150.227 54.712C149.312 54.712 148.584 55.0013 148.043 55.58C147.502 56.1587 147.231 56.9707 147.231 58.016V66.5H142.443V50.876H147.231V52.948C147.716 52.2573 148.37 51.716 149.191 51.324C150.012 50.9133 150.936 50.708 151.963 50.708ZM160.358 58.66C160.358 57.0547 160.657 55.6453 161.254 54.432C161.87 53.2187 162.701 52.2853 163.746 51.632C164.792 50.9787 165.958 50.652 167.246 50.652C168.348 50.652 169.309 50.876 170.13 51.324C170.97 51.772 171.614 52.36 172.062 53.088V50.876H176.85V66.5H172.062V64.288C171.596 65.016 170.942 65.604 170.102 66.052C169.281 66.5 168.32 66.724 167.218 66.724C165.949 66.724 164.792 66.3973 163.746 65.744C162.701 65.072 161.87 64.1293 161.254 62.916C160.657 61.684 160.358 60.2653 160.358 58.66ZM172.062 58.688C172.062 57.4933 171.726 56.5507 171.054 55.86C170.401 55.1693 169.598 54.824 168.646 54.824C167.694 54.824 166.882 55.1693 166.21 55.86C165.557 56.532 165.23 57.4653 165.23 58.66C165.23 59.8547 165.557 60.8067 166.21 61.516C166.882 62.2067 167.694 62.552 168.646 62.552C169.598 62.552 170.401 62.2067 171.054 61.516C171.726 60.8253 172.062 59.8827 172.062 58.688ZM186.25 50.652C187.351 50.652 188.313 50.876 189.134 51.324C189.974 51.772 190.618 52.36 191.066 53.088V50.876H195.854V66.472C195.854 67.9093 195.565 69.2067 194.986 70.364C194.426 71.54 193.558 72.4733 192.382 73.164C191.225 73.8547 189.778 74.2 188.042 74.2C185.727 74.2 183.851 73.6493 182.414 72.548C180.977 71.4653 180.155 69.9907 179.95 68.124H184.682C184.831 68.7213 185.186 69.188 185.746 69.524C186.306 69.8787 186.997 70.056 187.818 70.056C188.807 70.056 189.591 69.7667 190.17 69.188C190.767 68.628 191.066 67.7227 191.066 66.472V64.26C190.599 64.988 189.955 65.5853 189.134 66.052C188.313 66.5 187.351 66.724 186.25 66.724C184.962 66.724 183.795 66.3973 182.75 65.744C181.705 65.072 180.874 64.1293 180.258 62.916C179.661 61.684 179.362 60.2653 179.362 58.66C179.362 57.0547 179.661 55.6453 180.258 54.432C180.874 53.2187 181.705 52.2853 182.75 51.632C183.795 50.9787 184.962 50.652 186.25 50.652ZM191.066 58.688C191.066 57.4933 190.73 56.5507 190.058 55.86C189.405 55.1693 188.602 54.824 187.65 54.824C186.698 54.824 185.886 55.1693 185.214 55.86C184.561 56.532 184.234 57.4653 184.234 58.66C184.234 59.8547 184.561 60.8067 185.214 61.516C185.886 62.2067 186.698 62.552 187.65 62.552C188.602 62.552 189.405 62.2067 190.058 61.516C190.73 60.8253 191.066 59.8827 191.066 58.688ZM214.046 58.436C214.046 58.884 214.018 59.3507 213.962 59.836H203.126C203.201 60.8067 203.509 61.5533 204.05 62.076C204.61 62.58 205.291 62.832 206.094 62.832C207.289 62.832 208.119 62.328 208.586 61.32H213.682C213.421 62.3467 212.945 63.2707 212.254 64.092C211.582 64.9133 210.733 65.5573 209.706 66.024C208.679 66.4907 207.531 66.724 206.262 66.724C204.731 66.724 203.369 66.3973 202.174 65.744C200.979 65.0907 200.046 64.1573 199.374 62.944C198.702 61.7307 198.366 60.312 198.366 58.688C198.366 57.064 198.693 55.6453 199.346 54.432C200.018 53.2187 200.951 52.2853 202.146 51.632C203.341 50.9787 204.713 50.652 206.262 50.652C207.774 50.652 209.118 50.9693 210.294 51.604C211.47 52.2387 212.385 53.144 213.038 54.32C213.71 55.496 214.046 56.868 214.046 58.436ZM209.146 57.176C209.146 56.3547 208.866 55.7013 208.306 55.216C207.746 54.7307 207.046 54.488 206.206 54.488C205.403 54.488 204.722 54.7213 204.162 55.188C203.621 55.6547 203.285 56.3173 203.154 57.176H209.146ZM236.508 50.708C238.449 50.708 239.989 51.296 241.128 52.472C242.285 53.648 242.864 55.2813 242.864 57.372V66.5H238.104V58.016C238.104 57.008 237.833 56.2333 237.292 55.692C236.769 55.132 236.041 54.852 235.108 54.852C234.175 54.852 233.437 55.132 232.896 55.692C232.373 56.2333 232.112 57.008 232.112 58.016V66.5H227.352V58.016C227.352 57.008 227.081 56.2333 226.54 55.692C226.017 55.132 225.289 54.852 224.356 54.852C223.423 54.852 222.685 55.132 222.144 55.692C221.621 56.2333 221.36 57.008 221.36 58.016V66.5H216.572V50.876H221.36V52.836C221.845 52.1827 222.48 51.6693 223.264 51.296C224.048 50.904 224.935 50.708 225.924 50.708C227.1 50.708 228.145 50.96 229.06 51.464C229.993 51.968 230.721 52.6867 231.244 53.62C231.785 52.7613 232.523 52.0613 233.456 51.52C234.389 50.9787 235.407 50.708 236.508 50.708ZM260.941 58.436C260.941 58.884 260.913 59.3507 260.857 59.836H250.021C250.095 60.8067 250.403 61.5533 250.945 62.076C251.505 62.58 252.186 62.832 252.989 62.832C254.183 62.832 255.014 62.328 255.481 61.32H260.577C260.315 62.3467 259.839 63.2707 259.149 64.092C258.477 64.9133 257.627 65.5573 256.601 66.024C255.574 66.4907 254.426 66.724 253.157 66.724C251.626 66.724 250.263 66.3973 249.069 65.744C247.874 65.0907 246.941 64.1573 246.269 62.944C245.597 61.7307 245.261 60.312 245.261 58.688C245.261 57.064 245.587 55.6453 246.241 54.432C246.913 53.2187 247.846 52.2853 249.041 51.632C250.235 50.9787 251.607 50.652 253.157 50.652C254.669 50.652 256.013 50.9693 257.189 51.604C258.365 52.2387 259.279 53.144 259.933 54.32C260.605 55.496 260.941 56.868 260.941 58.436ZM256.041 57.176C256.041 56.3547 255.761 55.7013 255.201 55.216C254.641 54.7307 253.941 54.488 253.101 54.488C252.298 54.488 251.617 54.7213 251.057 55.188C250.515 55.6547 250.179 56.3173 250.049 57.176H256.041ZM272.986 50.708C274.816 50.708 276.272 51.3053 277.354 52.5C278.456 53.676 279.006 55.3 279.006 57.372V66.5H274.246V58.016C274.246 56.9707 273.976 56.1587 273.434 55.58C272.893 55.0013 272.165 54.712 271.25 54.712C270.336 54.712 269.608 55.0013 269.066 55.58C268.525 56.1587 268.254 56.9707 268.254 58.016V66.5H263.466V50.876H268.254V52.948C268.74 52.2573 269.393 51.716 270.214 51.324C271.036 50.9133 271.96 50.708 272.986 50.708ZM291.042 62.44V66.5H288.606C286.87 66.5 285.516 66.08 284.546 65.24C283.575 64.3813 283.09 62.9907 283.09 61.068V54.852H281.186V50.876H283.09V47.068H287.878V50.876H291.014V54.852H287.878V61.124C287.878 61.5907 287.99 61.9267 288.214 62.132C288.438 62.3373 288.811 62.44 289.334 62.44H291.042Z" fill="#F97316"/>
</svg>
