<svg width="200" height="32" viewBox="0 0 200 32" fill="none" xmlns="http://www.w3.org/2000/svg">
<path fill-rule="evenodd" clip-rule="evenodd" d="M25.932 11.264L21.8507 14.6667C22.0502 15.5453 22.0502 16.4574 21.8507 17.336L25.932 20.736C26.6351 19.2564 26.9999 17.6388 26.9999 16.0007C26.9999 14.3626 26.6351 12.745 25.932 11.2654V11.264ZM20.736 25.9334L17.3334 21.8507C16.4548 22.0502 15.5426 22.0502 14.664 21.8507L11.264 25.932C12.7436 26.6351 14.3612 26.9999 15.9994 26.9999C17.6375 26.9999 19.2551 26.6351 20.7347 25.932L20.736 25.9334ZM6.06669 20.736L10.1494 17.3334C9.94983 16.4548 9.94983 15.5426 10.1494 14.664L6.06802 11.2667C5.36495 12.7463 5.00018 14.3639 5.00018 16.002C5.00018 17.6402 5.36495 19.2578 6.06802 20.7374L6.06669 20.736ZM11.264 6.0667L14.6667 10.1494C15.5453 9.94983 16.4574 9.94983 17.336 10.1494L20.736 6.06803C19.2564 5.36496 17.6388 5.00019 16.0007 5.00019C14.3625 5.00019 12.745 5.36496 11.2654 6.06803L11.264 6.0667ZM22.8067 4.92003C23.6732 5.4536 24.4742 6.0868 25.1934 6.8067C25.9126 7.52512 26.5454 8.32523 27.0787 9.1907C28.3352 11.239 29.0002 13.5951 29.0002 15.998C29.0002 18.401 28.3352 20.7571 27.0787 22.8054C26.5451 23.6718 25.9119 24.4728 25.192 25.192C24.4736 25.9113 23.6735 26.544 22.808 27.0774C20.7596 28.3341 18.4032 28.9993 16 28.9993C13.5968 28.9993 11.2405 28.3341 9.19202 27.0774C8.32648 26.5436 7.52637 25.9104 6.80802 25.1907C6.08829 24.4723 5.4551 23.6722 4.92135 22.8067C3.6646 20.7583 2.99939 18.4019 2.99939 15.9987C2.99939 13.5955 3.6646 11.2391 4.92135 9.1907C5.45508 8.32514 6.08827 7.52503 6.80802 6.8067C7.52636 6.08695 8.32647 5.45375 9.19202 4.92003C11.2403 3.66354 13.5964 2.99847 15.9994 2.99847C18.4023 2.99847 20.7584 3.66354 22.8067 4.92003ZM18.828 13.1734C18.4106 12.7544 17.905 12.4337 17.348 12.2347C16.4761 11.9244 15.5239 11.9244 14.652 12.2347C14.0951 12.4337 13.5895 12.7544 13.172 13.1734C12.7374 13.6067 12.4254 14.1134 12.2334 14.6534C11.923 15.5252 11.923 16.4775 12.2334 17.3494C12.4254 17.8894 12.7374 18.396 13.172 18.8294C13.6054 19.264 14.112 19.576 14.652 19.768C15.5214 20.0787 16.4787 20.0787 17.348 19.768C17.905 19.569 18.4106 19.2483 18.828 18.8294C19.2627 18.396 19.5747 17.8894 19.7667 17.3494C20.0769 16.4775 20.0769 15.5253 19.7667 14.6534C19.5677 14.0964 19.247 13.5908 18.828 13.1734Z" fill="#F97316"/>
<path d="M45.056 22.112C44.2347 22.112 43.4987 21.9787 42.848 21.712C42.1973 21.4453 41.6747 21.0507 41.28 20.528C40.896 20.0053 40.6933 19.376 40.672 18.64H43.584C43.6267 19.056 43.7707 19.376 44.016 19.6C44.2613 19.8133 44.5813 19.92 44.976 19.92C45.3813 19.92 45.7013 19.8293 45.936 19.648C46.1707 19.456 46.288 19.1947 46.288 18.864C46.288 18.5867 46.192 18.3573 46 18.176C45.8187 17.9947 45.5893 17.8453 45.312 17.728C45.0453 17.6107 44.6613 17.4773 44.16 17.328C43.4347 17.104 42.8427 16.88 42.384 16.656C41.9253 16.432 41.5307 16.1013 41.2 15.664C40.8693 15.2267 40.704 14.656 40.704 13.952C40.704 12.9067 41.0827 12.0907 41.84 11.504C42.5973 10.9067 43.584 10.608 44.8 10.608C46.0373 10.608 47.0347 10.9067 47.792 11.504C48.5493 12.0907 48.9547 12.912 49.008 13.968H46.048C46.0267 13.6053 45.8933 13.3227 45.648 13.12C45.4027 12.9067 45.088 12.8 44.704 12.8C44.3733 12.8 44.1067 12.8907 43.904 13.072C43.7013 13.2427 43.6 13.4933 43.6 13.824C43.6 14.1867 43.7707 14.4693 44.112 14.672C44.4533 14.8747 44.9867 15.0933 45.712 15.328C46.4373 15.5733 47.024 15.808 47.472 16.032C47.9307 16.256 48.3253 16.5813 48.656 17.008C48.9867 17.4347 49.152 17.984 49.152 18.656C49.152 19.296 48.9867 19.8773 48.656 20.4C48.336 20.9227 47.8667 21.3387 47.248 21.648C46.6293 21.9573 45.8987 22.112 45.056 22.112ZM50.2918 17.52C50.2918 16.6027 50.4624 15.7973 50.8038 15.104C51.1558 14.4107 51.6304 13.8773 52.2278 13.504C52.8251 13.1307 53.4918 12.944 54.2278 12.944C54.8571 12.944 55.4064 13.072 55.8758 13.328C56.3558 13.584 56.7238 13.92 56.9798 14.336V13.072H59.7158V22H56.9798V20.736C56.7131 21.152 56.3398 21.488 55.8598 21.744C55.3904 22 54.8411 22.128 54.2118 22.128C53.4864 22.128 52.8251 21.9413 52.2278 21.568C51.6304 21.184 51.1558 20.6453 50.8038 19.952C50.4624 19.248 50.2918 18.4373 50.2918 17.52ZM56.9798 17.536C56.9798 16.8533 56.7878 16.3147 56.4038 15.92C56.0304 15.5253 55.5718 15.328 55.0278 15.328C54.4838 15.328 54.0198 15.5253 53.6358 15.92C53.2624 16.304 53.0758 16.8373 53.0758 17.52C53.0758 18.2027 53.2624 18.7467 53.6358 19.152C54.0198 19.5467 54.4838 19.744 55.0278 19.744C55.5718 19.744 56.0304 19.5467 56.4038 19.152C56.7878 18.7573 56.9798 18.2187 56.9798 17.536ZM64.4311 10.16V22H61.6951V10.16H64.4311ZM74.8299 17.392C74.8299 17.648 74.8139 17.9147 74.7819 18.192H68.5899C68.6325 18.7467 68.8085 19.1733 69.1179 19.472C69.4379 19.76 69.8272 19.904 70.2859 19.904C70.9685 19.904 71.4432 19.616 71.7099 19.04H74.6219C74.4725 19.6267 74.2005 20.1547 73.8059 20.624C73.4219 21.0933 72.9365 21.4613 72.3499 21.728C71.7632 21.9947 71.1072 22.128 70.3819 22.128C69.5072 22.128 68.7285 21.9413 68.0459 21.568C67.3632 21.1947 66.8299 20.6613 66.4459 19.968C66.0619 19.2747 65.8699 18.464 65.8699 17.536C65.8699 16.608 66.0565 15.7973 66.4299 15.104C66.8139 14.4107 67.3472 13.8773 68.0299 13.504C68.7125 13.1307 69.4965 12.944 70.3819 12.944C71.2459 12.944 72.0139 13.1253 72.6859 13.488C73.3579 13.8507 73.8805 14.368 74.2539 15.04C74.6379 15.712 74.8299 16.496 74.8299 17.392ZM72.0299 16.672C72.0299 16.2027 71.8699 15.8293 71.5499 15.552C71.2299 15.2747 70.8299 15.136 70.3499 15.136C69.8912 15.136 69.5019 15.2693 69.1819 15.536C68.8725 15.8027 68.6805 16.1813 68.6059 16.672H72.0299ZM79.9053 22.128C79.1266 22.128 78.4333 21.9947 77.8253 21.728C77.2173 21.4613 76.7373 21.0987 76.3853 20.64C76.0333 20.1707 75.8359 19.648 75.7933 19.072H78.4973C78.5293 19.3813 78.6733 19.632 78.9293 19.824C79.1853 20.016 79.4999 20.112 79.8733 20.112C80.2146 20.112 80.4759 20.048 80.6573 19.92C80.8493 19.7813 80.9453 19.6053 80.9453 19.392C80.9453 19.136 80.8119 18.9493 80.5453 18.832C80.2786 18.704 79.8466 18.5653 79.2493 18.416C78.6093 18.2667 78.0759 18.112 77.6493 17.952C77.2226 17.7813 76.8546 17.52 76.5453 17.168C76.2359 16.8053 76.0813 16.32 76.0813 15.712C76.0813 15.2 76.2199 14.736 76.4973 14.32C76.7853 13.8933 77.2013 13.5573 77.7453 13.312C78.2999 13.0667 78.9559 12.944 79.7133 12.944C80.8333 12.944 81.7133 13.2213 82.3533 13.776C83.0039 14.3307 83.3773 15.0667 83.4733 15.984H80.9453C80.9026 15.6747 80.7639 15.4293 80.5293 15.248C80.3053 15.0667 80.0066 14.976 79.6333 14.976C79.3133 14.976 79.0679 15.04 78.8973 15.168C78.7266 15.2853 78.6413 15.4507 78.6413 15.664C78.6413 15.92 78.7746 16.112 79.0413 16.24C79.3186 16.368 79.7453 16.496 80.3213 16.624C80.9826 16.7947 81.5213 16.9653 81.9373 17.136C82.3533 17.296 82.7159 17.5627 83.0253 17.936C83.3453 18.2987 83.5106 18.7893 83.5213 19.408C83.5213 19.9307 83.3719 20.4 83.0733 20.816C82.7853 21.2213 82.3639 21.5413 81.8093 21.776C81.2653 22.0107 80.6306 22.128 79.9053 22.128ZM101.306 10.768V22H98.5698V15.264L96.0578 22H93.8498L91.3218 15.248V22H88.5858V10.768H91.8177L94.9698 18.544L98.0898 10.768H101.306ZM102.729 17.52C102.729 16.6027 102.9 15.7973 103.241 15.104C103.593 14.4107 104.068 13.8773 104.665 13.504C105.263 13.1307 105.929 12.944 106.665 12.944C107.295 12.944 107.844 13.072 108.313 13.328C108.793 13.584 109.161 13.92 109.417 14.336V13.072H112.153V22H109.417V20.736C109.151 21.152 108.777 21.488 108.297 21.744C107.828 22 107.279 22.128 106.649 22.128C105.924 22.128 105.263 21.9413 104.665 21.568C104.068 21.184 103.593 20.6453 103.241 19.952C102.9 19.248 102.729 18.4373 102.729 17.52ZM109.417 17.536C109.417 16.8533 109.225 16.3147 108.841 15.92C108.468 15.5253 108.009 15.328 107.465 15.328C106.921 15.328 106.457 15.5253 106.073 15.92C105.7 16.304 105.513 16.8373 105.513 17.52C105.513 18.2027 105.7 18.7467 106.073 19.152C106.457 19.5467 106.921 19.744 107.465 19.744C108.009 19.744 108.468 19.5467 108.841 19.152C109.225 18.7573 109.417 18.2187 109.417 17.536ZM119.573 12.976C120.618 12.976 121.45 13.3173 122.069 14C122.698 14.672 123.013 15.6 123.013 16.784V22H120.293V17.152C120.293 16.5547 120.138 16.0907 119.829 15.76C119.519 15.4293 119.103 15.264 118.581 15.264C118.058 15.264 117.642 15.4293 117.333 15.76C117.023 16.0907 116.869 16.5547 116.869 17.152V22H114.133V13.072H116.869V14.256C117.146 13.8613 117.519 13.552 117.989 13.328C118.458 13.0933 118.986 12.976 119.573 12.976ZM124.37 17.52C124.37 16.6027 124.541 15.7973 124.882 15.104C125.234 14.4107 125.709 13.8773 126.306 13.504C126.903 13.1307 127.57 12.944 128.306 12.944C128.935 12.944 129.485 13.072 129.954 13.328C130.434 13.584 130.802 13.92 131.058 14.336V13.072H133.794V22H131.058V20.736C130.791 21.152 130.418 21.488 129.938 21.744C129.469 22 128.919 22.128 128.29 22.128C127.565 22.128 126.903 21.9413 126.306 21.568C125.709 21.184 125.234 20.6453 124.882 19.952C124.541 19.248 124.37 18.4373 124.37 17.52ZM131.058 17.536C131.058 16.8533 130.866 16.3147 130.482 15.92C130.109 15.5253 129.65 15.328 129.106 15.328C128.562 15.328 128.098 15.5253 127.714 15.92C127.341 16.304 127.154 16.8373 127.154 17.52C127.154 18.2027 127.341 18.7467 127.714 19.152C128.098 19.5467 128.562 19.744 129.106 19.744C129.65 19.744 130.109 19.5467 130.482 19.152C130.866 18.7573 131.058 18.2187 131.058 17.536ZM139.165 12.944C139.795 12.944 140.344 13.072 140.813 13.328C141.293 13.584 141.661 13.92 141.917 14.336V13.072H144.653V21.984C144.653 22.8053 144.488 23.5467 144.157 24.208C143.837 24.88 143.341 25.4133 142.669 25.808C142.008 26.2027 141.181 26.4 140.189 26.4C138.867 26.4 137.795 26.0853 136.973 25.456C136.152 24.8373 135.683 23.9947 135.565 22.928H138.269C138.355 23.2693 138.557 23.536 138.877 23.728C139.197 23.9307 139.592 24.032 140.061 24.032C140.627 24.032 141.075 23.8667 141.405 23.536C141.747 23.216 141.917 22.6987 141.917 21.984V20.72C141.651 21.136 141.283 21.4773 140.813 21.744C140.344 22 139.795 22.128 139.165 22.128C138.429 22.128 137.763 21.9413 137.165 21.568C136.568 21.184 136.093 20.6453 135.741 19.952C135.4 19.248 135.229 18.4373 135.229 17.52C135.229 16.6027 135.4 15.7973 135.741 15.104C136.093 14.4107 136.568 13.8773 137.165 13.504C137.763 13.1307 138.429 12.944 139.165 12.944ZM141.917 17.536C141.917 16.8533 141.725 16.3147 141.341 15.92C140.968 15.5253 140.509 15.328 139.965 15.328C139.421 15.328 138.957 15.5253 138.573 15.92C138.2 16.304 138.013 16.8373 138.013 17.52C138.013 18.2027 138.2 18.7467 138.573 19.152C138.957 19.5467 139.421 19.744 139.965 19.744C140.509 19.744 140.968 19.5467 141.341 19.152C141.725 18.7573 141.917 18.2187 141.917 17.536ZM155.049 17.392C155.049 17.648 155.033 17.9147 155.001 18.192H148.809C148.851 18.7467 149.027 19.1733 149.337 19.472C149.657 19.76 150.046 19.904 150.505 19.904C151.187 19.904 151.662 19.616 151.929 19.04H154.841C154.691 19.6267 154.419 20.1547 154.025 20.624C153.641 21.0933 153.155 21.4613 152.569 21.728C151.982 21.9947 151.326 22.128 150.601 22.128C149.726 22.128 148.947 21.9413 148.265 21.568C147.582 21.1947 147.049 20.6613 146.665 19.968C146.281 19.2747 146.089 18.464 146.089 17.536C146.089 16.608 146.275 15.7973 146.649 15.104C147.033 14.4107 147.566 13.8773 148.249 13.504C148.931 13.1307 149.715 12.944 150.601 12.944C151.465 12.944 152.233 13.1253 152.905 13.488C153.577 13.8507 154.099 14.368 154.473 15.04C154.857 15.712 155.049 16.496 155.049 17.392ZM152.249 16.672C152.249 16.2027 152.089 15.8293 151.769 15.552C151.449 15.2747 151.049 15.136 150.569 15.136C150.11 15.136 149.721 15.2693 149.401 15.536C149.091 15.8027 148.899 16.1813 148.825 16.672H152.249ZM167.884 12.976C168.993 12.976 169.873 13.312 170.524 13.984C171.185 14.656 171.516 15.5893 171.516 16.784V22H168.796V17.152C168.796 16.576 168.641 16.1333 168.332 15.824C168.033 15.504 167.617 15.344 167.084 15.344C166.551 15.344 166.129 15.504 165.82 15.824C165.521 16.1333 165.372 16.576 165.372 17.152V22H162.652V17.152C162.652 16.576 162.497 16.1333 162.188 15.824C161.889 15.504 161.473 15.344 160.94 15.344C160.407 15.344 159.985 15.504 159.676 15.824C159.377 16.1333 159.228 16.576 159.228 17.152V22H156.492V13.072H159.228V14.192C159.505 13.8187 159.868 13.5253 160.316 13.312C160.764 13.088 161.271 12.976 161.836 12.976C162.508 12.976 163.105 13.12 163.628 13.408C164.161 13.696 164.577 14.1067 164.876 14.64C165.185 14.1493 165.607 13.7493 166.14 13.44C166.673 13.1307 167.255 12.976 167.884 12.976ZM181.845 17.392C181.845 17.648 181.83 17.9147 181.798 18.192H175.606C175.648 18.7467 175.824 19.1733 176.134 19.472C176.454 19.76 176.843 19.904 177.302 19.904C177.984 19.904 178.459 19.616 178.726 19.04H181.638C181.488 19.6267 181.216 20.1547 180.822 20.624C180.438 21.0933 179.952 21.4613 179.366 21.728C178.779 21.9947 178.123 22.128 177.398 22.128C176.523 22.128 175.744 21.9413 175.062 21.568C174.379 21.1947 173.846 20.6613 173.462 19.968C173.078 19.2747 172.886 18.464 172.886 17.536C172.886 16.608 173.072 15.7973 173.446 15.104C173.83 14.4107 174.363 13.8773 175.046 13.504C175.728 13.1307 176.512 12.944 177.398 12.944C178.262 12.944 179.03 13.1253 179.702 13.488C180.374 13.8507 180.896 14.368 181.27 15.04C181.654 15.712 181.845 16.496 181.845 17.392ZM179.046 16.672C179.046 16.2027 178.886 15.8293 178.566 15.552C178.246 15.2747 177.846 15.136 177.366 15.136C176.907 15.136 176.518 15.2693 176.198 15.536C175.888 15.8027 175.696 16.1813 175.622 16.672H179.046ZM188.729 12.976C189.774 12.976 190.606 13.3173 191.225 14C191.854 14.672 192.169 15.6 192.169 16.784V22H189.449V17.152C189.449 16.5547 189.294 16.0907 188.985 15.76C188.676 15.4293 188.26 15.264 187.737 15.264C187.214 15.264 186.798 15.4293 186.489 15.76C186.18 16.0907 186.025 16.5547 186.025 17.152V22H183.289V13.072H186.025V14.256C186.302 13.8613 186.676 13.552 187.145 13.328C187.614 13.0933 188.142 12.976 188.729 12.976ZM199.046 19.68V22H197.654C196.662 22 195.889 21.76 195.334 21.28C194.779 20.7893 194.502 19.9947 194.502 18.896V15.344H193.414V13.072H194.502V10.896H197.238V13.072H199.03V15.344H197.238V18.928C197.238 19.1947 197.302 19.3867 197.43 19.504C197.558 19.6213 197.771 19.68 198.07 19.68H199.046Z" fill="#F97316"/>
</svg>
